<?xml version="1.0" standalone="no"?>
<!DOCTYPE svg PUBLIC "-//W3C//DTD SVG 1.1//EN" "http://www.w3.org/Graphics/SVG/1.1/DTD/svg11.dtd">
<svg xmlns="http://www.w3.org/2000/svg" id="Layer_1" data-name="Layer 1" viewBox="0 0 775.22 193.68" width="775.219970703125" height="193.67999267578125"><defs><style>.cls-1{fill:#ec1f27;}.cls-2{fill:#231f20;}.cls-3{fill:#fff;}.cls-4{fill:none;}</style></defs><title>DSA ATX bat circle + text</title><path class="cls-1" d="M194,96.82A96.84,96.84,0,1,1,97.13,0,96.84,96.84,0,0,1,194,96.82" transform="translate(-0.29 0.02)"/><path class="cls-2" d="M156.74,87.9a20.74,20.74,0,0,0,1,4,18.62,18.62,0,0,0-6.29-.34c-8.1,1-12.41,4.7-13.48,11.53a26.45,26.45,0,0,0-4.23-4.42,1.33,1.33,0,0,0-.12-.06l-.05,0a1.1,1.1,0,0,0-.26-.06h0a.86.86,0,0,0-.28,0,12.67,12.67,0,0,0-2.71,1.55,15,15,0,0,0-5.85,8.82,26.23,26.23,0,0,0-10,5.42,6.56,6.56,0,0,0-.93-.79l0,0a34.78,34.78,0,0,1,2.57,5.48,13.12,13.12,0,0,1,.61,4.14,4.89,4.89,0,0,1-1.66,3.43,7.28,7.28,0,0,0-.12-1.45,5.94,5.94,0,0,0-.73-2,13.26,13.26,0,0,1-.36,2.41,4.67,4.67,0,0,1-1.81,2.25,13.82,13.82,0,0,0-.5-2.86,6.71,6.71,0,0,0-.64-1.24,16.39,16.39,0,0,1-.44,1.85,4.38,4.38,0,0,1-1.38,2c0-1.87-.68-5.45-2-7a5.71,5.71,0,0,1,.68,1.7,12.87,12.87,0,0,1,.33,1.79c0,.33,0,.68,0,1-4.15.53-8.28,1.25-12.39,2.1a12.65,12.65,0,0,1-.56-1.57,6,6,0,0,1-.24-1.8c-.4,2,.82,5.48,1.74,7.1a4.4,4.4,0,0,1-2.2-1.05,15.25,15.25,0,0,1-1.31-1.38,5.63,5.63,0,0,0,.08,1.4,13.44,13.44,0,0,0,1,2.72,4.78,4.78,0,0,1-2.69-1A14.67,14.67,0,0,1,90,129.74a6.07,6.07,0,0,0,.35,2.07,7.63,7.63,0,0,0,.62,1.32A4.81,4.81,0,0,1,87.8,131a13,13,0,0,1-1.56-3.91,33.28,33.28,0,0,1-.5-6h0a5.65,5.65,0,0,0-.41,1.15,25.75,25.75,0,0,0-14.52,1.32,22,22,0,0,0-8.18,6.09c-4.68-9.91-11.18-12.78-20.74-8.65a18.29,18.29,0,0,0-5.27,3.43,20.24,20.24,0,0,0-1.17-4c-3.58-8.74-12.58-13.37-20.9-11.14A66.19,66.19,0,0,1,49.74,74.13c.44-.2.87-.38,1.31-.55,4.4,9.57,13.54,17.25,24.89,20.76.57.16,1.14.33,1.72.48,0,.18,0,.37,0,.56a18.41,18.41,0,0,1-.43,2.48A26.71,26.71,0,0,1,70.57,96a39.08,39.08,0,0,1-8-4.56,47.72,47.72,0,0,1-7-6.28A36.06,36.06,0,0,1,50,77.44l-.16-.32-.28.11A34.26,34.26,0,0,0,40.16,82a53.76,53.76,0,0,0-8,7,94.54,94.54,0,0,0-6.91,8.18C23,100,21.05,102.94,19.07,106c2.17-2.85,4.34-5.69,6.71-8.35A87.6,87.6,0,0,1,33.13,90a52.22,52.22,0,0,1,8.23-6.16c.73-.43,1.46-.85,2.2-1.22s1.26-.61,1.9-.88c-.26.52-.5,1.06-.76,1.6-.55,1.15-1.06,2.33-1.56,3.53-.26.59-.49,1.2-.72,1.79s-.42,1.23-.64,1.84c-.41,1.23-.79,2.48-1.12,3.74-.18.62-.32,1.26-.45,1.89s-.28,1.26-.4,1.92a49,49,0,0,0-.88,7.75,59.55,59.55,0,0,1,1.75-7.47c.16-.6.35-1.21.56-1.82s.38-1.21.62-1.79c.46-1.18.94-2.35,1.46-3.49a69.1,69.1,0,0,1,3.41-6.7c.61-1.07,1.31-2.11,1.89-3.21,0-.11.1-.22.15-.34a11.8,11.8,0,0,0,.1,1.69c.07.56.13,1.12.22,1.68A50.37,50.37,0,0,0,50.62,91q.91,3.24,1.94,6.42c.67,2.14,1.45,4.24,2.25,6.32-.52-2.16-1-4.33-1.47-6.5s-.9-4.34-1.25-6.53-.6-4.39-.92-6.56c.79,1,1.61,2,2.47,3a48.38,48.38,0,0,0,7.41,6.71,42,42,0,0,0,8.53,4.94,29.4,29.4,0,0,0,7,2,11.11,11.11,0,0,0-.28,2.16,33.91,33.91,0,0,0,.61,6l1-1.8.49-.85a15.74,15.74,0,0,0,.24,2,15.52,15.52,0,0,0,.55,2.26,13.49,13.49,0,0,0,.91,2.14,13.34,13.34,0,0,1-.55-2.22,14.16,14.16,0,0,1-.19-2.26,17,17,0,0,1,.09-2.25,15,15,0,0,1,.36-2.18l1.16-4.84-2.49,4.37-.57,1c0-.4,0-.79.05-1.2.06-.7.14-1.4.23-2.11.06-.52.13-1,.22-1.59s.11-.87.16-1.31a12.79,12.79,0,0,0,0-2.63,6.43,6.43,0,0,0-.59-2.15,36.88,36.88,0,0,1-2-4.77.9.9,0,0,0,0-.15A6.79,6.79,0,0,0,73,83.92c-2.76-1.68-5.62-2.88-7.3-6.3-3.31-6.74-1.83-16.68-1.83-16.68,6.79,2.82,13.44,5.67,17.59,9,0,0,3.06-1,5-1.56s5.16-1.17,5.16-1.17c1.91-5,6.25-10.78,10.72-16.61,0,0,6.25,7.85,6.75,15.35.26,3.81-1.62,6.27-3.17,9.12a6.71,6.71,0,0,0-.49,5.3c0,.09,0,.14,0,.15a37.86,37.86,0,0,1,.62,4.54c0,.24,0,.46,0,.67a6.3,6.3,0,0,0,.56,2.08,12.66,12.66,0,0,0,1.35,2.25c.26.36.53.71.79,1.06l1,1.26c.44.58.85,1.14,1.26,1.71.21.34.42.67.62,1l-1-.56L106.44,92l3.44,3.63a17.34,17.34,0,0,1,1.41,1.71c.42.61.83,1.25,1.2,1.9a13.63,13.63,0,0,1,1,2,11.6,11.6,0,0,1,.64,2.2,12.07,12.07,0,0,0-.29-2.31,13.64,13.64,0,0,0-.65-2.24,15.78,15.78,0,0,0-.76-1.81l.85.5,1.79,1a32.85,32.85,0,0,0-2.49-5.53,12.63,12.63,0,0,0-1.32-1.74,28.55,28.55,0,0,0,5.1-5.26,40.42,40.42,0,0,0,4.92-8.53,49,49,0,0,0,3.07-9.52c.27-1.24.5-2.52.67-3.81.8,2.05,1.65,4.09,2.46,6.15s1.53,4.16,2.2,6.29,1.33,4.23,2,6.36c-.34-2.22-.72-4.41-1.2-6.59s-1-4.36-1.54-6.55a47.85,47.85,0,0,0-2-6.45c-.19-.51-.42-1-.65-1.55a14.06,14.06,0,0,0-.74-1.51l.3.21c1,.67,2.17,1.21,3.24,1.85a69,69,0,0,1,6.3,4.07c1,.74,2,1.52,3,2.31.5.39,1,.82,1.44,1.24s.95.85,1.4,1.29A63,63,0,0,1,146.42,77a49.7,49.7,0,0,0-4.63-6.27c-.43-.5-.85-1-1.31-1.46s-.86-1-1.33-1.41c-.93-.93-1.87-1.81-2.84-2.67-.49-.43-1-.88-1.48-1.28s-1-.82-1.51-1.2c-1-.79-2.07-1.55-3.13-2.27-.49-.34-1-.69-1.46-1,.7-.07,1.4-.15,2.1-.18s1.67,0,2.5,0a51,51,0,0,1,10.2,1.21,92.1,92.1,0,0,1,10.16,2.88c3.37,1.13,6.68,2.49,10,3.88-3.22-1.61-6.44-3.22-9.75-4.59A94.56,94.56,0,0,0,143.85,59a53.86,53.86,0,0,0-10.43-2c-1.15-.09-2.3-.15-3.44-.15a30.81,30.81,0,0,0-7.11.78l-.29,0,0,.35a36.84,36.84,0,0,1-.91,9.49,48.17,48.17,0,0,1-2.93,9,38.87,38.87,0,0,1-4.63,7.92,26.45,26.45,0,0,1-4.88,4.92,20.44,20.44,0,0,1-1.59-1.94c-.11-.15-.2-.32-.29-.47,8.9-8.88,13.44-20.71,12.42-31.72L121.2,55A66.16,66.16,0,0,1,169.27,67.8C161,70,155.48,78.53,156.74,87.9" transform="translate(-0.29 0.02)"/><path class="cls-3" d="M114.45,114.39c.17.16.33.33.48.5.29.33.54.69.8,1a24,24,0,0,1,8.27-4.75,21.94,21.94,0,0,1,.42-2.22,26.23,26.23,0,0,0-10,5.42" transform="translate(-0.29 0.02)"/><path class="cls-3" d="M173.66,68.68l-3.87,1c-7.42,2-12.19,9.69-11.07,17.92a18.74,18.74,0,0,0,.88,3.64l1.22,3.4-3.53-.79a16.29,16.29,0,0,0-5.61-.3c-8,.93-11.72,4.65-12,12.19a21.5,21.5,0,0,0-1.73-2.64c1.06-6.83,5.37-10.58,13.48-11.52a18.55,18.55,0,0,1,6.28.33,21.47,21.47,0,0,1-1-4C155.49,78.54,161,70,169.27,67.8A66.09,66.09,0,0,0,121.21,55c-.47,0-.93.1-1.42.17,1,11-3.52,22.83-12.41,31.71.09.15.18.32.28.47a19.36,19.36,0,0,0,1.6,1.94,26,26,0,0,0,4.87-4.91,38.76,38.76,0,0,0,4.63-7.93,47.21,47.21,0,0,0,2.93-9A36.32,36.32,0,0,0,122.6,58v-.34l.29,0a30.71,30.71,0,0,1,7.1-.77c1.14,0,2.29.06,3.45.15a52.67,52.67,0,0,1,10.43,2,95.29,95.29,0,0,1,10.08,3.62c3.31,1.37,6.53,3,9.75,4.59-3.31-1.38-6.62-2.75-10-3.87a90.62,90.62,0,0,0-10.16-2.89,51,51,0,0,0-10.2-1.21c-.84,0-1.69,0-2.51,0s-1.39.11-2.09.19c.5.32,1,.67,1.45,1,1.07.73,2.1,1.49,3.13,2.28.52.38,1,.8,1.52,1.2s1,.85,1.47,1.27c1,.87,1.92,1.75,2.84,2.67.47.44.9.93,1.34,1.42s.88,1,1.3,1.45A48.75,48.75,0,0,1,146.42,77a60,60,0,0,0-5.23-5.58c-.46-.44-.91-.88-1.4-1.29s-.94-.85-1.44-1.25c-1-.79-2-1.56-3-2.31a67.61,67.61,0,0,0-6.3-4.07c-1.06-.63-2.19-1.18-3.23-1.85l-.31-.21a13.41,13.41,0,0,1,.75,1.52c.23.51.45,1,.65,1.55a47.42,47.42,0,0,1,2,6.45q.82,3.27,1.53,6.54c.49,2.19.87,4.37,1.2,6.59-.62-2.12-1.27-4.25-2-6.36s-1.41-4.22-2.2-6.29-1.65-4.1-2.46-6.14c-.17,1.29-.39,2.56-.67,3.81a50.11,50.11,0,0,1-3.06,9.52,40.86,40.86,0,0,1-4.92,8.53,28.82,28.82,0,0,1-5.1,5.25,12.73,12.73,0,0,1,1.32,1.75A32.55,32.55,0,0,1,115,98.71l-1.79-1-.85-.51c.28.6.54,1.2.76,1.81a16.06,16.06,0,0,1,.65,2.25,12,12,0,0,1,.29,2.31,12.49,12.49,0,0,0-.64-2.21,14.16,14.16,0,0,0-1-2,19.47,19.47,0,0,0-1.2-1.89,15.23,15.23,0,0,0-1.41-1.72L106.45,92l4.36,2.55,1,.56c-.19-.34-.41-.68-.62-1-.41-.58-.82-1.14-1.26-1.72l-1-1.26c-.25-.35-.53-.7-.79-1.06a13.28,13.28,0,0,1-1.35-2.25,6.75,6.75,0,0,1-.56-2.08c0-.21,0-.42,0-.67a36.06,36.06,0,0,0-.63-4.54s0-.06,0-.15a6.75,6.75,0,0,1,.48-5.3c1.55-2.85,3.44-5.31,3.18-9.12-.5-7.5-6.76-15.35-6.76-15.35-4.46,5.83-8.8,11.63-10.72,16.61,0,0-3.17.64-5.16,1.17s-5,1.56-5,1.56c-4.14-3.35-10.79-6.21-17.58-9,0,0-1.49,9.94,1.82,16.68,1.69,3.42,4.54,4.62,7.3,6.31a6.85,6.85,0,0,1,3.09,4.35c0,.08,0,.14,0,.15a36.3,36.3,0,0,0,2,4.77,6.92,6.92,0,0,1,.59,2.16,12.7,12.7,0,0,1,0,2.62c0,.44-.1.88-.15,1.31s-.17,1.08-.23,1.59c-.1.72-.18,1.42-.23,2.11,0,.4,0,.81,0,1.2l.56-1,2.49-4.36-1.15,4.83a16.67,16.67,0,0,0-.37,2.19,21,21,0,0,0-.09,2.25,14.44,14.44,0,0,0,.18,2.26,16.26,16.26,0,0,0,.52,2.14,13.1,13.1,0,0,1-.87-2.07q-.19-.66-.36-1.35a7,7,0,0,1-.18-.91c-.06-.32-.11-.64-.15-1s-.08-.65-.1-1h0l-.49.82-1,1.81s0-.21-.11-.58c0-.13,0-.3-.08-.48a.42.42,0,0,0,0-.12c0-.2-.06-.43-.09-.67a6,6,0,0,1-.07-.61c0-.18,0-.38-.08-.58s0-.44-.06-.66a22.69,22.69,0,0,1-.09-2.33,9.78,9.78,0,0,1,.17-1.62c0-.18.07-.35.1-.53a29.48,29.48,0,0,1-7-2,41,41,0,0,1-8.53-4.93,49,49,0,0,1-7.41-6.71c-.87-.94-1.69-1.93-2.48-3,.32,2.17.59,4.35.93,6.56s.77,4.35,1.24,6.52,1,4.35,1.48,6.5c-.81-2.08-1.58-4.17-2.25-6.31S51.23,93.11,50.63,91a50.26,50.26,0,0,1-1.54-6.55c-.09-.57-.15-1.13-.21-1.69A13.41,13.41,0,0,1,48.77,81a3.31,3.31,0,0,1-.15.33c-.58,1.11-1.27,2.14-1.88,3.22a69,69,0,0,0-3.42,6.69c-.51,1.14-1,2.31-1.45,3.5-.25.57-.43,1.19-.63,1.79s-.39,1.21-.56,1.82a58.71,58.71,0,0,0-1.74,7.47,49.17,49.17,0,0,1,.88-7.76c.12-.65.24-1.29.39-1.91s.27-1.28.46-1.9c.33-1.26.71-2.51,1.12-3.74.21-.6.39-1.23.64-1.83s.45-1.2.71-1.79c.5-1.2,1-2.39,1.56-3.54.26-.53.51-1.08.76-1.6-.63.28-1.27.57-1.89.89s-1.48.78-2.21,1.21A51.69,51.69,0,0,0,33.14,90a90.58,90.58,0,0,0-7.35,7.56c-2.37,2.66-4.54,5.5-6.71,8.35,2-3,4-6,6.15-8.83a93.22,93.22,0,0,1,6.9-8.18,53.19,53.19,0,0,1,8-7,34.29,34.29,0,0,1,9.44-4.74l.27-.11.17.32a36.06,36.06,0,0,0,5.54,7.76,47.28,47.28,0,0,0,7,6.29,39,39,0,0,0,8,4.55,26.36,26.36,0,0,0,6.67,1.82,16.57,16.57,0,0,0,.42-2.47,5.23,5.23,0,0,0,0-.56c-12.14-3.24-22-11.21-26.61-21.24-.44.16-.86.35-1.3.54a66.21,66.21,0,0,0-35.23,35.13c8.32-2.23,17.33,2.4,20.91,11.15a20.64,20.64,0,0,1,1.17,4A18.29,18.29,0,0,1,41.87,121c9.56-4.13,16.06-1.26,20.73,8.65a22,22,0,0,1,8.19-6.08,25.61,25.61,0,0,1,14.51-1.33c-.06.22-.12.44-.17.66a11.88,11.88,0,0,0-.16,1.32,23.66,23.66,0,0,0-13.39,1.17,20,20,0,0,0-7.47,5.54l-2,2.35-1.32-2.79c-4.25-9-9.67-11.31-18.14-7.67A16.63,16.63,0,0,0,38,125.86l-2.64,2.44-.67-3.54a18.7,18.7,0,0,0-1-3.59c-3.14-7.69-11.11-12-18.55-10l-3.87,1,1.52-3.7C19.23,92.62,32.44,79.43,49,72.31c.44-.2.89-.38,1.36-.58L52.07,71l.79,1.71c4,8.82,12.34,15.87,22.54,19.33A24.1,24.1,0,0,1,74.2,89l-.06-.24A4.71,4.71,0,0,0,72,85.63c-.42-.26-.85-.52-1.27-.76-2.39-1.38-5.09-3-6.77-6.36-3.56-7.23-2.07-17.43-2-17.86l.38-2.52,2.35,1C71.53,62,77.6,64.63,81.84,67.76c1.08-.35,2.84-.91,4.16-1.28s3.11-.74,4.24-1c2.09-4.81,6-10.16,10.56-16.09l1.54-2,1.59,2c.27.35,6.66,8.44,7.2,16.47.24,3.79-1.31,6.5-2.69,8.9-.24.42-.5.85-.73,1.29a4.86,4.86,0,0,0-.35,3.76c0,.11.06.2.08.23a23.28,23.28,0,0,1,.53,3.32c7.1-8.1,10.75-18.35,9.85-28l-.17-1.88,1.87-.27c.5-.08,1-.14,1.49-.19,17.84-2.09,35.87,2.72,49.48,13.21Z" transform="translate(-0.29 0.02)"/><polygon class="cls-3" points="77.69 107.11 78.18 106.29 77.71 107.13 76.68 108.92 77.69 107.11"/><path class="cls-3" d="M80.19,112.6s0,0,0-.07a16.26,16.26,0,0,1-.52-2.14,14.44,14.44,0,0,1-.18-2.26,14.38,14.38,0,0,0,.2,2.26,11.52,11.52,0,0,0,.55,2.21" transform="translate(-0.29 0.02)"/><path class="cls-2" d="M97.52,130.5,99,132.31,96.53,132h0a4.47,4.47,0,0,1-1.79-.61c.12.28.24.57.37.84l.49,1A15.2,15.2,0,0,1,99,136.52a80.19,80.19,0,0,1,7.09,11.7l.49-5,2.91,4.07a79.93,79.93,0,0,1,.29-13.67,15.19,15.19,0,0,1,1.31-4.51l-.07-.93-1.17.13-.19.18h0L107.68,130l.21-1.4q-5.28.7-10.5,1.75l.13.18" transform="translate(-0.29 0.02)"/><path class="cls-3" d="M78.87,81a1.5,1.5,0,0,0-1,1.82,1.48,1.48,0,0,0,1.81,1A1.49,1.49,0,0,0,78.87,81" transform="translate(-0.29 0.02)"/><path class="cls-3" d="M100.17,78.35a1.48,1.48,0,1,0-.76-2.86,1.49,1.49,0,0,0-1,1.82,1.47,1.47,0,0,0,1.81,1" transform="translate(-0.29 0.02)"/><path class="cls-3" d="M86.14,84.5c2.64,1.48,4.17-1.89,4.17-1.89s3,2.16,4.56-.46c1.36-2.31-2.82-3.9-4.89-4.52a1.83,1.83,0,0,0-1.88.5c-1.48,1.58-4.3,5.05-2,6.37m5.61-4.76a1.17,1.17,0,1,1-.82,1.42,1.17,1.17,0,0,1,.82-1.42m-4.12,1.11a1.16,1.16,0,1,1-.83,1.42,1.16,1.16,0,0,1,.83-1.42" transform="translate(-0.29 0.02)"/><path class="cls-2" d="M92.36,82a1.17,1.17,0,0,0-.61-2.25,1.16,1.16,0,0,0-.82,1.42,1.18,1.18,0,0,0,1.43.83" transform="translate(-0.29 0.02)"/><path class="cls-2" d="M88.23,83.09a1.16,1.16,0,0,0-.6-2.24,1.16,1.16,0,1,0,.6,2.24" transform="translate(-0.29 0.02)"/><path class="cls-3" d="M76.36,102.87a22.69,22.69,0,0,0,.09,2.33,20.19,20.19,0,0,1-.11-2.33,12.56,12.56,0,0,1,.19-1.62,9.78,9.78,0,0,0-.17,1.62" transform="translate(-0.29 0.02)"/><path class="cls-3" d="M78.48,106.26c0,.32,0,.65.1,1,0-.32-.08-.64-.11-1Z" transform="translate(-0.29 0.02)"/><path class="cls-3" d="M78.73,108.2a7,7,0,0,0,.18.91c-.08-.3-.14-.62-.2-.92s-.09-.64-.13-1c0,.33.09.65.15,1" transform="translate(-0.29 0.02)"/><polygon class="cls-3" points="80.76 98.87 80.76 98.89 78.27 103.24 77.71 104.22 78.26 103.24 80.76 98.87"/><path class="cls-3" d="M73,78.59c-.2-.23-.4-.46-.58-.71s-.4-.47-.58-.72a30.29,30.29,0,0,1-2-3.09c-.31-.53-.58-1.08-.86-1.64s-.54-1.11-.79-1.68c-.48-1.14-1-2.29-1.34-3.48a12.15,12.15,0,0,0,.16,4c.13.64.31,1.27.5,1.9s.46,1.23.72,1.83a14.8,14.8,0,0,0,1,1.75,8.27,8.27,0,0,0,1.24,1.6,5.85,5.85,0,0,0,1.71,1.2,4.22,4.22,0,0,0,2.19.41c-.22-.23-.46-.41-.67-.64s-.44-.44-.64-.68" transform="translate(-0.29 0.02)"/><path class="cls-3" d="M103.49,69.54a9.1,9.1,0,0,1-.16.91c0,.31-.15.6-.21.9s-.18.59-.26.9a4.29,4.29,0,0,0,1.69-1.45,6,6,0,0,0,.89-1.9,8.52,8.52,0,0,0,.27-2,14.65,14.65,0,0,0-.06-2c-.07-.66-.16-1.31-.28-1.95s-.31-1.28-.52-1.9a12.11,12.11,0,0,0-1.84-3.5c.27,1.22.43,2.46.58,3.69.07.61.12,1.23.16,1.85s.07,1.23.07,1.85a29.93,29.93,0,0,1-.2,3.68,9.06,9.06,0,0,1-.13.91" transform="translate(-0.29 0.02)"/><path class="cls-3" d="M114,127.46l-.2.24-.22.22.41,0Z" transform="translate(-0.29 0.02)"/><path class="cls-1" d="M133.24,119.62l-.17,4.29,1.8.07h0l.88,0a12.08,12.08,0,0,0,3.87-6.55Z" transform="translate(-0.29 0.02)"/><path class="cls-1" d="M131.69,119.47l-6.57-4.21a11.1,11.1,0,0,0,2.41,7c.11.11.2.23.3.32l0,0a6.38,6.38,0,0,0,1.55,1.21l2.11.08Z" transform="translate(-0.29 0.02)"/><path class="cls-1" d="M131.76,117.65l.14-3.49-6.18-4.46a20,20,0,0,0-.58,3.66Z" transform="translate(-0.29 0.02)"/><path class="cls-1" d="M132,112.28l.13-3.17-4.68-3.54a11.75,11.75,0,0,0-1.15,2.38s-.06.12-.08.16Z" transform="translate(-0.29 0.02)"/><path class="cls-1" d="M132.43,100.62a14,14,0,0,0-4.13,3.65l3.87,2.93Z" transform="translate(-0.29 0.02)"/><path class="cls-1" d="M137.15,104.67A24.48,24.48,0,0,0,134,101l-.23,6.14,3.42-2.48Z" transform="translate(-0.29 0.02)"/><path class="cls-1" d="M133.65,109.14l-.15,3.69,6.59-1.16A15,15,0,0,0,138,106Z" transform="translate(-0.29 0.02)"/><path class="cls-1" d="M133.31,117.94,140,115.7h0c.09-.66.16-1.37.19-2.12,0-.11,0-.22,0-.33l-6.75,1.18Z" transform="translate(-0.29 0.02)"/><path class="cls-1" d="M133.09,154.2a21.3,21.3,0,0,0,2.66-3.11l-2.68-1.64Z" transform="translate(-0.29 0.02)"/><path class="cls-1" d="M129,151.28a26.38,26.38,0,0,0,2.53,2.87l0-4.62Z" transform="translate(-0.29 0.02)"/><path class="cls-1" d="M131.49,144l-5.18,2.95a26.42,26.42,0,0,0,1.78,3.09l3.42-2.38Z" transform="translate(-0.29 0.02)"/><path class="cls-1" d="M133.06,147.6l3.57,2.18a21.9,21.9,0,0,0,1.1-2L133,144.21Z" transform="translate(-0.29 0.02)"/><path class="cls-1" d="M133,142.24l5.37,4.07a22.83,22.83,0,0,0,1-3.09L133,137.61Z" transform="translate(-0.29 0.02)"/><path class="cls-1" d="M131.47,141.23l0-4.06-7,3.63A21.12,21.12,0,0,0,125.5,145h0c0,.05.14.36.18.45l5.8-3.3Z" transform="translate(-0.29 0.02)"/><path class="cls-1" d="M131.44,133l-7,1.93a16.82,16.82,0,0,0-.22,4.24l7.19-3.73V133Z" transform="translate(-0.29 0.02)"/><path class="cls-1" d="M133,133.06l0,2.47,6.81,5.94a27.47,27.47,0,0,0,.35-3.28,8,8,0,0,0-.1-1.45Z" transform="translate(-0.29 0.02)"/><path class="cls-1" d="M135.53,127.93l-2.57-.1v3.46l6.54,3.4a26.35,26.35,0,0,0-4-6.76" transform="translate(-0.29 0.02)"/><path class="cls-1" d="M131.42,131.33l0-3.56-2.13-.08a6.84,6.84,0,0,0-2,1.44h0c-.1.09-.19.19-.29.29l-.1.13c-.1.11-.2.22-.29.34h0a5.3,5.3,0,0,0-.34.45h0a10.91,10.91,0,0,0-1.32,2.77Z" transform="translate(-0.29 0.02)"/><path class="cls-1" d="M148.91,142.12h-.39c-3.46-.13-5.59-1.23-6.9-2.49a26.61,26.61,0,0,1-.38,2.64,5.41,5.41,0,0,0,4.54,3.11,6.12,6.12,0,0,0,4.44-1.9,7.37,7.37,0,0,1-1.31-1.36" transform="translate(-0.29 0.02)"/><path class="cls-1" d="M141,133.56s0,0,0,.05v0l-.08.29a14.36,14.36,0,0,1,.61,2,.13.13,0,0,0,0,.06c.08.4.14.78.18,1.18a0,0,0,0,1,0,0c1.16,2.06,3.54,3.21,6.88,3.34A10.17,10.17,0,0,0,157,137.2c-2.39-.35-6.53-2.9-8.25-6.89a9.49,9.49,0,0,1-.77-4.11,10.92,10.92,0,0,1,1.22-4.49,13.35,13.35,0,0,0-1.87,1.08c-5.21,3.67-6.33,10.7-6.34,10.77" transform="translate(-0.29 0.02)"/><path class="cls-1" d="M150.16,129.67a11,11,0,0,0,7.13,6,2.15,2.15,0,0,0,1.76-.45,3.88,3.88,0,0,0,1.07-2.11,11.31,11.31,0,0,1-5.72-3.9,4.73,4.73,0,0,1-1.21-3.55,7.12,7.12,0,0,1,.95-2.86,12.45,12.45,0,0,1,1.6-2.23,15.3,15.3,0,0,0-4.29.37c-2,3-2.48,6-1.29,8.73" transform="translate(-0.29 0.02)"/><path class="cls-1" d="M159.06,137a11,11,0,0,1-8.15,5,4.73,4.73,0,0,0,2.87,1.29,5.88,5.88,0,0,0,4.65-2.1,8.53,8.53,0,0,0,1.9-5.05l-.28.27a3.56,3.56,0,0,1-1,.59" transform="translate(-0.29 0.02)"/><path class="cls-1" d="M162.7,122.53a5.55,5.55,0,0,1-1.18.55,5,5,0,0,1,1.77,4.15,3.67,3.67,0,0,1-2.73,3.38,12.63,12.63,0,0,0,1,1.31s0,0,0,.05a.5.5,0,0,1,.08.14v0l0,0a.37.37,0,0,0,0,.09s0,0,0,.05a16.33,16.33,0,0,1,.16,3.46,9,9,0,0,0,.78-13.24" transform="translate(-0.29 0.02)"/><path class="cls-1" d="M159.75,129.23c1-.27,1.95-.84,2-2.06a3.4,3.4,0,0,0-1.47-3.07,4.15,4.15,0,0,0-1.05,2.07,5.09,5.09,0,0,0,.53,3.06" transform="translate(-0.29 0.02)"/><path class="cls-1" d="M158.91,121c-.4-.08-.8-.16-1.19-.21-.74.68-2.83,2.82-3,5a3.13,3.13,0,0,0,.82,2.37,12.22,12.22,0,0,0,3.38,2.82,7.66,7.66,0,0,1-1.33-4.32,4.25,4.25,0,0,1,.09-.79,6.17,6.17,0,0,1,2.44-3.76,5,5,0,0,0-.41-.64,1.81,1.81,0,0,0-.82-.47" transform="translate(-0.29 0.02)"/><path class="cls-1" d="M159.63,119.59a3.16,3.16,0,0,1,1.3.89,5.11,5.11,0,0,1,.59.92,4.15,4.15,0,0,0,.73-.47s0,0,0,0a3.19,3.19,0,0,0,1.08-1.82,4.94,4.94,0,0,0-1.88-4.58,8.58,8.58,0,0,0-5.79-2.12,16.39,16.39,0,0,1,1,3.54,13.09,13.09,0,0,1,2.93,3.67" transform="translate(-0.29 0.02)"/><path class="cls-1" d="M141.6,115.31c4.11-2.14,7.88-2.69,11.19-1.62a10.64,10.64,0,0,1,2.05.92,13.6,13.6,0,0,0-1-2.47,7,7,0,0,0-6.24-4.28,9.84,9.84,0,0,0-6.31,2,13.58,13.58,0,0,1,.39,3.75c0,.58-.07,1.14-.13,1.67" transform="translate(-0.29 0.02)"/><path class="cls-1" d="M136.63,125.33a2.25,2.25,0,0,1,.09.69,1.85,1.85,0,0,1-.16.71,30.13,30.13,0,0,1,3.27,4.87c.68-2.5,2.45-7.17,6.6-10.09a13.43,13.43,0,0,1,4.32-2l.14,0a17.53,17.53,0,0,1,6.64-.3,10.46,10.46,0,0,0-5.23-4c-3.18-1-6.89-.32-11,2.09a14,14,0,0,1-4.63,8" transform="translate(-0.29 0.02)"/><path class="cls-3" d="M163.88,121.48a5,5,0,0,0,1-2.06,6.52,6.52,0,0,0-2.38-6.11,10.12,10.12,0,0,0-7.56-2.47,8.5,8.5,0,0,0-7.23-4.56,11.29,11.29,0,0,0-6.86,2,17.64,17.64,0,0,0-1.16-2.53,20.76,20.76,0,0,0-1.73-2.64,26.45,26.45,0,0,0-4.23-4.42,1.33,1.33,0,0,0-.12-.06l-.05,0a1.1,1.1,0,0,0-.26-.06h0a.86.86,0,0,0-.28,0,12.67,12.67,0,0,0-2.71,1.55,15,15,0,0,0-5.85,8.82,21.87,21.87,0,0,0-.43,2.22c-.1.76-.18,1.53-.21,2.38-.27,7.29,2.36,9.14,3,10.1l0,.18c-3,.05-5.93.17-8.89.38,0-.17.09-.3.12-.47a3.86,3.86,0,0,0,0-.58v-.48c0-.34,0-.66,0-1a11.12,11.12,0,0,0-.37-1.91,6.45,6.45,0,0,0-.29-.91l-.16-.49L117,118a14,14,0,0,0-.91-1.61c-.09-.14-.21-.27-.3-.41-.26-.36-.52-.71-.81-1.06-.15-.17-.32-.32-.48-.49a6.56,6.56,0,0,0-.93-.79l0,0a34.78,34.78,0,0,1,2.57,5.48,13.12,13.12,0,0,1,.61,4.14,4.89,4.89,0,0,1-1.66,3.43,7.28,7.28,0,0,0-.12-1.45,5.94,5.94,0,0,0-.73-2,13.26,13.26,0,0,1-.36,2.41,4.67,4.67,0,0,1-1.81,2.25,13.82,13.82,0,0,0-.5-2.86,6.71,6.71,0,0,0-.64-1.24,16.39,16.39,0,0,1-.44,1.85,4.38,4.38,0,0,1-1.38,2c0-1.87-.68-5.45-2-7a5.71,5.71,0,0,1,.68,1.7,12.87,12.87,0,0,1,.33,1.79c0,.33,0,.68,0,1-4.15.53-8.28,1.25-12.39,2.1a12.65,12.65,0,0,1-.56-1.57,6,6,0,0,1-.24-1.8c-.4,2,.82,5.48,1.74,7.1a4.4,4.4,0,0,1-2.2-1.05,15.25,15.25,0,0,1-1.31-1.38,5.63,5.63,0,0,0,.08,1.4,13.44,13.44,0,0,0,1,2.72,4.78,4.78,0,0,1-2.69-1A14.67,14.67,0,0,1,90,129.74a6.07,6.07,0,0,0,.35,2.07,7.63,7.63,0,0,0,.62,1.32A4.81,4.81,0,0,1,87.8,131a13,13,0,0,1-1.56-3.91,33.28,33.28,0,0,1-.5-6h0a5.65,5.65,0,0,0-.41,1.15c-.06.21-.13.44-.17.65-.09.44-.12.88-.17,1.32,0,.17,0,.35-.06.52a16.16,16.16,0,0,0,0,1.84L85,127l.07.5c.06.31.14.63.22,1a10.49,10.49,0,0,0,.39,1.2A169.63,169.63,0,0,0,57.7,140a1.67,1.67,0,0,0,.78,3.18,1.6,1.6,0,0,0,.64-.17,167.1,167.1,0,0,1,28.38-10.4,5.94,5.94,0,0,0,1.14.87,4.74,4.74,0,0,0,2.12.62l2.13.17-.34-.54a13.68,13.68,0,0,1,4.86,4,76.49,76.49,0,0,1,6.88,11.37l3.08,6.18.65-6.6,3.87,5.4-.44-6.9a79.3,79.3,0,0,1,.28-13.27,13.78,13.78,0,0,1,2.21-5.89v.63l1.29-.89c3.8-.34,7.61-.52,11.42-.58v.4c-6.85,6.55-3.27,16.65-2,19.4a25.66,25.66,0,0,0,7.23,9.55s.08,0,.11.07l.09,0a.59.59,0,0,0,.22.05h.1a.5.5,0,0,0,.21-.05l.09,0,.11,0a24,24,0,0,0,8-12.19,6.78,6.78,0,0,0,5,2.58,7.74,7.74,0,0,0,5.85-2.61,6.21,6.21,0,0,0,2.09.55,7.43,7.43,0,0,0,5.91-2.6,9.2,9.2,0,0,0,2.11-4.54h.06a9.74,9.74,0,0,0,5-8.37,9.89,9.89,0,0,0-2.91-7.88m-54.13,12.16a81.85,81.85,0,0,0-.28,13.67l-2.92-4.07-.49,5A78.78,78.78,0,0,0,99,136.53a14.4,14.4,0,0,0-3.38-3.25l-.49-1-.38-.84a4.47,4.47,0,0,0,1.8.61h0l2.41.29-1.42-1.81-.14-.18c3.49-.7,7-1.28,10.51-1.75l-.2,1.4,1.94-1.46c.08-.06.12-.12.2-.18.38-.05.77-.08,1.17-.12l.07.92a15.38,15.38,0,0,0-1.32,4.51m16.49-3.26v0a3.12,3.12,0,0,1,.34-.45v0l.28-.33a.65.65,0,0,1,.11-.12l.29-.31a6.84,6.84,0,0,1,2-1.44l2.14.08,0,3.57-6.5,1.8a11.37,11.37,0,0,1,1.32-2.76M125.5,145v0a20.78,20.78,0,0,1-1.08-4.2l7-3.64,0-1.77-7.18,3.74a16.82,16.82,0,0,1,.22-4.24l7-1.93v2.43h0v1.77l0,4.05v1l-5.8,3.3a4.18,4.18,0,0,1-.18-.45m.82,1.88,5.17-2.94,0,3.67L128.09,150a24.48,24.48,0,0,1-1.77-3.1m2.68,4.37,2.51-1.76,0,4.63a29.79,29.79,0,0,1-2.54-2.87m2.53-27.41-2.12-.1a6,6,0,0,1-1.56-1.21s0,0,0,0-.2-.21-.31-.31a11.1,11.1,0,0,1-2.41-7l6.57,4.2Zm.24-6.21-6.64-4.3a19.16,19.16,0,0,1,.6-3.66l6.17,4.46Zm.2-5.38-5.77-4.17a.77.77,0,0,1,.07-.17,10.68,10.68,0,0,1,1.16-2.37l4.67,3.54Zm.19-5.08-3.85-2.92a14.36,14.36,0,0,1,4.11-3.66Zm29.32,7.3a5,5,0,0,1,1.88,4.58,3.28,3.28,0,0,1-1.08,1.83h0a4.15,4.15,0,0,1-.73.47,5.85,5.85,0,0,0-.59-.91,3.1,3.1,0,0,0-1.3-.9,13.14,13.14,0,0,0-2.93-3.65,15.67,15.67,0,0,0-1-3.56,8.64,8.64,0,0,1,5.8,2.13M158.94,131a12.48,12.48,0,0,1-3.38-2.83,3.14,3.14,0,0,1-.82-2.38c.15-2.17,2.25-4.31,3-5,.4.06.79.14,1.2.22a1.76,1.76,0,0,1,.82.47,5.69,5.69,0,0,1,.41.63,6.23,6.23,0,0,0-2.44,3.77,4.25,4.25,0,0,0-.09.79,7.71,7.71,0,0,0,1.33,4.33m-4.81-8.19a7.25,7.25,0,0,0-.94,2.87,4.71,4.71,0,0,0,1.2,3.54c2.43,2.76,4.57,3.63,5.74,3.9a3.9,3.9,0,0,1-1.08,2.11,2.12,2.12,0,0,1-1.76.44c-1.72-.21-5.57-2.4-7.14-6-1.18-2.78-.74-5.71,1.29-8.74a15.4,15.4,0,0,1,4.3-.37,13,13,0,0,0-1.61,2.23m5.62,6.42a5,5,0,0,1-.53-3,4.12,4.12,0,0,1,1.06-2.08,3.44,3.44,0,0,1,1.46,3.09,2.29,2.29,0,0,1-2,2m-12.1-21.36a7,7,0,0,1,6.24,4.27,13.6,13.6,0,0,1,.94,2.47,12.59,12.59,0,0,0-2-.91c-3.33-1.07-7.08-.53-11.21,1.61a14.45,14.45,0,0,0,.14-1.67,12.59,12.59,0,0,0-.4-3.75,9.93,9.93,0,0,1,6.32-2M134,101a26.1,26.1,0,0,1,3.19,3.68l-3.43,2.47Zm-.32,8.14L138,106a14.73,14.73,0,0,1,2.08,5.69l-6.59,1.16Zm-.21,5.3,6.75-1.19c0,.11,0,.22,0,.32a17.33,17.33,0,0,1-.2,2.13l-6.68,2.24Zm-.2,5.17,6.38-2.14a12.19,12.19,0,0,1-3.87,6.55l-.88,0-1.8-.08Zm-.29,8.22,2.58.1a25.88,25.88,0,0,1,4,6.76l-6.54-3.4Zm.14,26.37,0-4.75,2.69,1.64a22.48,22.48,0,0,1-2.67,3.11m3.54-4.42-3.57-2.18,0-3.39,4.69,3.57a18.89,18.89,0,0,1-1.1,2m1.77-3.46L133,142.24l0-4.63,6.42,5.61a22.09,22.09,0,0,1-1,3.1m1.41-4.84L133,135.53l0-2.48,7.08,3.69a8,8,0,0,1,.1,1.46,26,26,0,0,1-.35,3.28m0-9.87a31.6,31.6,0,0,0-3.26-4.88,2.3,2.3,0,0,0,.15-.71,2.36,2.36,0,0,0-.09-.7,14,14,0,0,0,4.63-8c4.14-2.42,7.86-3.12,11-2.1a10.52,10.52,0,0,1,5.24,4,17.61,17.61,0,0,0-6.65.3l-.13.05a13.51,13.51,0,0,0-4.32,2c-4.16,2.92-5.92,7.58-6.6,10.1m1,2.32.07-.29v0a.33.33,0,0,0,0-.06c0-.06,1.13-7.09,6.35-10.76a11.52,11.52,0,0,1,1.87-1.08A11.07,11.07,0,0,0,148,126.2a9.41,9.41,0,0,0,.77,4.1c1.72,4,5.86,6.55,8.25,6.91a10.16,10.16,0,0,1-8.42,3.34c-3.35-.14-5.72-1.27-6.89-3.34h0c0-.4-.1-.78-.18-1.19,0,0,0,0,0,0a11.34,11.34,0,0,0-.6-2m4.9,11.45a5.41,5.41,0,0,1-4.54-3.1,26.6,26.6,0,0,0,.38-2.66c1.31,1.26,3.43,2.37,6.89,2.51l.4,0a7.1,7.1,0,0,0,1.3,1.37,6.06,6.06,0,0,1-4.43,1.9m12.65-4.18a5.86,5.86,0,0,1-4.65,2.11,4.67,4.67,0,0,1-2.87-1.29,11,11,0,0,0,8.14-5,3.18,3.18,0,0,0,1-.59c.09-.07.18-.17.28-.26a8.61,8.61,0,0,1-1.9,5m3.49-5.43a15.26,15.26,0,0,0-.17-3.46s0,0,0-.05a.15.15,0,0,0,0-.09s0,0,0,0h0l-.07-.14s0,0,0,0a16.14,16.14,0,0,1-1-1.32,3.7,3.7,0,0,0,2.75-3.37,5,5,0,0,0-1.78-4.16,4.84,4.84,0,0,0,1.17-.55,8.15,8.15,0,0,1,2.55,6.77,8.25,8.25,0,0,1-3.32,6.47" transform="translate(-0.29 0.02)"/><rect class="cls-4" x="10.88" y="47.42" width="162.49" height="109.31"/><path class="cls-2" d="M269.48,59.17a1,1,0,0,0-1-.76H245.89a1.06,1.06,0,0,0-1,.75l-22.36,77.52a1,1,0,0,0,1,1.33h16.83a1.06,1.06,0,0,0,1-.78l3.55-13.61h24.41l3.56,13.61a1,1,0,0,0,1,.78h16.83a1,1,0,0,0,.84-.42,1,1,0,0,0,.17-.91Zm-4.35,48.29H249.24L257,78h.39Z" transform="translate(-0.29 0.02)"/><path class="cls-2" d="M347.55,80.55H331.61a1,1,0,0,0-1.05,1v38.3c-3,2.71-5.42,3.73-8.81,3.73-3.9,0-5.49-1.56-5.49-5.38V81.6a1,1,0,0,0-1-1H299.38a1,1,0,0,0-1,1v36.76c0,12.6,6.64,20.42,17.32,20.42,7.17,0,11.85-3.39,14.9-6.09V137a1,1,0,0,0,1.05,1h15.94a1,1,0,0,0,1.05-1V81.6a1,1,0,0,0-1.05-1" transform="translate(-0.29 0.02)"/><path class="cls-2" d="M382.52,101.86c-5.69-1.71-5.61-3.35-5.58-4.14v-.29c0-1.52.51-3.27,4.49-3.27,4.88,0,6.58,2.7,8,5.72a1.07,1.07,0,0,0,1.1.58l12.29-1.88a1.05,1.05,0,0,0,.89-1.09c-.62-10.83-9.55-17.82-22.75-17.82-12.61,0-21.42,7.08-21.42,17.21,0,8.86,6.74,15.27,20,19.06,7.65,2.08,7.64,3.85,7.64,4.75s0,3.72-5.5,3.72h-.28c-4.3,0-7.1-1.92-8.82-6a1.06,1.06,0,0,0-1.12-.63l-13.07,2a1.06,1.06,0,0,0-.88,1.16c1.26,10.92,10.75,18,24.19,18,13.91,0,23.63-7.21,23.63-17.54,0-10.6-9.16-15.46-22.89-19.49" transform="translate(-0.29 0.02)"/><path class="cls-2" d="M446,80.55H435.87V65.88a1,1,0,0,0-1.16-1l-15.84,1.77a1,1,0,0,0-.93,1v12.9H409.8a1,1,0,0,0-1.05,1V94.33a1,1,0,0,0,1.05,1h8.14v22c0,12.85,2.93,21.41,17.21,21.41a27.08,27.08,0,0,0,10.58-2.07,1,1,0,0,0,.66-1V124.67a1,1,0,0,0-.34-.77,1.1,1.1,0,0,0-.8-.27c-3.89.34-6.44-.11-7.81-1.37-1.07-1-1.57-2.53-1.57-4.89v-22h10.25a1,1,0,0,0,1-1l-.11-12.74a1,1,0,0,0-1-1" transform="translate(-0.29 0.02)"/><path class="cls-2" d="M472.48,80.55h-16a1,1,0,0,0-1,1V137a1,1,0,0,0,1,1h16a1,1,0,0,0,1-1V81.6a1,1,0,0,0-1-1" transform="translate(-0.29 0.02)"/><path class="cls-2" d="M467.05,57.64h-4.87c-4.53,0-6.92,2.46-6.92,7.13v3.76c0,4.67,2.39,7.14,6.92,7.14h4.87c4.59,0,6.91-2.4,6.91-7.14V64.77c0-4.74-2.32-7.13-6.91-7.13" transform="translate(-0.29 0.02)"/><path class="cls-2" d="M518.54,79.78c-7.17,0-11.84,3.4-14.9,6.09V81.6a1,1,0,0,0-1-1h-16a1,1,0,0,0-1,1V137a1,1,0,0,0,1,1h16a1,1,0,0,0,1-1V98.67c3-2.72,5.42-3.73,8.81-3.73,3.9,0,5.49,1.55,5.49,5.37V137a1,1,0,0,0,1,1h15.84a1,1,0,0,0,1-1V100.2c0-12.59-6.63-20.42-17.32-20.42" transform="translate(-0.29 0.02)"/><path class="cls-2" d="M599.83,58.41h-22a1,1,0,0,0-1,1V137a1,1,0,0,0,1,1h22C625.17,138,637,125.33,637,98.1c0-27.45-11.46-39.69-37.14-39.69m1.33,63.34h-6V74.56h6c11.82,0,17.44,3.52,17.44,23.54s-5.62,23.65-17.44,23.65" transform="translate(-0.29 0.02)"/><path class="cls-2" d="M675.13,89.14l-1.19-.44C664,85,664,82.54,664,80.71c0-6.17,7.8-6.48,9.36-6.48,4.29,0,9.07,1,15,8a1,1,0,0,0,1.41.17l11.07-8.08a1,1,0,0,0,.3-1.35c-2-3.63-10-15.48-28.37-15.48-15.81,0-27.29,9.7-27.29,23.07,0,11,7.73,18.66,24.32,24,10.08,3.18,13.66,5.88,13.66,10.3,0,6.55-7.4,7.26-10.58,7.26s-11-.92-16.74-9.4a1.05,1.05,0,0,0-1.45-.28l-11.51,7.64a1,1,0,0,0-.37,1.31c4.95,10.75,16.48,17.44,30.07,17.44,16.84,0,29.06-10.27,29.06-24.41C702,99,688.33,94,675.13,89.14" transform="translate(-0.29 0.02)"/><path class="cls-2" d="M775.47,136.68,753.22,59.17a1.05,1.05,0,0,0-1-.76H729.62a1.05,1.05,0,0,0-1,.75l-22.37,77.52a1,1,0,0,0,1,1.33h16.84a1.06,1.06,0,0,0,1-.78l3.56-13.61h24.4l3.56,13.61a1.06,1.06,0,0,0,1,.78h16.84a1,1,0,0,0,1-1.33m-26.61-29.22H733L740.72,78h.39Z" transform="translate(-0.29 0.02)"/></svg>