<svg xmlns="http://www.w3.org/2000/svg" viewBox="25.46 111 380.3 255.76"><defs><style>.cls-1{fill:#ec1f27;}.cls-2{fill:#fff;}.cls-3{fill:#231f20;}</style></defs><path class="cls-2" d="M421.58,179c-31.83-24.56-74.05-35.83-115.79-30.93-1.17.13-2.32.28-3.49.45l-4.37.63.41,4.39c2.1,22.63-6.45,46.6-23.07,65.56a54.76,54.76,0,0,0-1.23-7.76c0-.09-.08-.3-.17-.56a11.27,11.27,0,0,1,.79-8.79c.56-1,1.14-2,1.72-3,3.22-5.59,6.87-11.93,6.27-20.81-1.24-18.79-16.19-37.74-16.83-38.54L262.11,135l-3.61,4.73c-10.61,13.88-19.83,26.38-24.73,37.64-2.62.55-6.82,1.47-9.92,2.29s-7.18,2.14-9.73,3c-9.89-7.32-24.11-13.53-40.22-20.24l-5.5-2.3-.88,5.89c-.16,1-3.63,24.9,4.68,41.79,3.93,8,10.26,11.66,15.85,14.9,1,.58,2,1.16,3,1.77a11.2,11.2,0,0,1,5.08,7.2l.14.58a54.24,54.24,0,0,0,2.81,7.34c-23.87-8.11-43.27-24.6-52.76-45.24l-1.85-4-4.1,1.65c-1.08.43-2.14.87-3.18,1.34C98.53,209.92,67.6,240.8,52.31,278l-3.57,8.68,9.07-2.43c17.39-4.66,36,5.38,43.4,23.37a42.88,42.88,0,0,1,2.48,8.42l1.53,8.29,6.19-5.72a38.88,38.88,0,0,1,11-7.19c19.81-8.53,32.51-3.16,42.47,18l3.08,6.53,4.67-5.51a47.3,47.3,0,0,1,17.46-13c8-3.45,21.66-5.48,33.54-2.23l5.42,15.2,1,.82a49.58,49.58,0,0,0,8.59,5.57c4.15,2.27,7.73,4.24,12,9.66,6.19,7.91,13,20.43,16.09,26.58l7.21,14.48L275.41,372l9.07,12.65-1-16.18c-.41-6.3-.79-20.9.63-31.05,1-6.82,3.09-10.32,5.55-14.36a50.07,50.07,0,0,0,4.65-9.11l.44-1.2-2.93-15.88c8.68-8.75,21.49-13.8,30.18-14.83a47.17,47.17,0,0,1,21.6,2.51l6.79,2.44-.6-7.19c-1.91-23.28,6.4-34.28,27.8-36.8a39.09,39.09,0,0,1,13.16.71l8.22,1.86-2.82-7.94a42.35,42.35,0,0,1-2.07-8.54c-2.62-19.24,8.52-37.27,25.9-41.92l9.06-2.43Zm-32.14,50.72a46.71,46.71,0,0,0,2.31,9.46,43.89,43.89,0,0,0-14.73-.79c-24.17,2.84-34,16.24-31.88,41.79a52,52,0,0,0-23.72-2.75c-10.66,1.26-25.38,7.55-34.62,18l3.12,16.94c-3.22,8.75-8.67,12-10.44,24.43-1.58,11.23-1,26.74-.67,32L272,359.28l-1.14,11.65c-2.35-4.72-9.6-18.44-16.59-27.37-7.74-9.9-14.09-10-21.24-15.94l-5.78-16.22c-13.22-4.41-29.1-2.5-39,1.73a52.14,52.14,0,0,0-19.17,14.25c-10.93-23.19-26.14-29.89-48.51-20.25a43.92,43.92,0,0,0-12.34,8.05,47,47,0,0,0-2.75-9.35c-8.37-20.47-29.45-31.3-48.89-26.09,14.33-34.86,43.26-65.34,82.4-82.2,1-.45,2.05-.88,3.08-1.29,11,23.89,34.63,42.81,63.75,50.13a9.22,9.22,0,0,0-.3-3.93,88.32,88.32,0,0,1-4.8-11.44s0-.17-.08-.36a15.84,15.84,0,0,0-7.2-10.19c-6.47-4-13.16-6.75-17.1-14.75-7.76-15.78-4.25-39.05-4.25-39.05,15.87,6.62,31.43,13.3,41.13,21.15,0,0,7.19-2.44,11.82-3.68s12.07-2.73,12.07-2.73c4.48-11.64,14.62-25.21,25.06-38.87,0,0,14.67,18.39,15.83,35.94.59,8.9-3.81,14.67-7.44,21.33a15.86,15.86,0,0,0-1.13,12.42c.06.19.09.3.1.35a88.31,88.31,0,0,1,1.57,12.31,9.38,9.38,0,0,0,1.71,3.55c21.55-20.9,32.56-49.11,30.14-75.29,1.11-.16,2.2-.3,3.31-.42,42.34-5,82.62,7,112.46,30-19.44,5.21-32.27,25.12-29.3,47" transform="translate(-23.28 -24)"/><path class="cls-3" d="M306.28,152.72c-1.11.12-2.2.26-3.31.42,2.42,26.18-8.59,54.39-30.14,75.29a9.38,9.38,0,0,1-1.71-3.55,88.31,88.31,0,0,0-1.57-12.31s0-.16-.1-.35a15.86,15.86,0,0,1,1.13-12.42c3.63-6.66,8-12.43,7.44-21.33-1.16-17.55-15.83-35.94-15.83-35.94-10.44,13.66-20.58,27.23-25.06,38.87,0,0-7.43,1.49-12.07,2.73s-11.82,3.68-11.82,3.68c-9.7-7.85-25.26-14.53-41.13-21.15,0,0-3.51,23.27,4.25,39.05,3.94,8,10.63,10.8,17.1,14.75a15.84,15.84,0,0,1,7.2,10.19c.05.19.07.31.08.36a88.32,88.32,0,0,0,4.8,11.44,9.22,9.22,0,0,1,.3,3.93c-29.12-7.32-52.76-26.24-63.75-50.13-1,.41-2,.84-3.08,1.29-39.14,16.86-68.07,47.34-82.4,82.2,19.44-5.21,40.52,5.62,48.89,26.09a47,47,0,0,1,2.75,9.35,43.92,43.92,0,0,1,12.34-8.05c22.37-9.64,37.58-2.94,48.51,20.25a52.14,52.14,0,0,1,19.17-14.25c9.87-4.23,25.75-6.14,39-1.73L233,327.62c7.15,6,13.5,6,21.24,15.94,7,8.93,14.24,22.65,16.59,27.37L272,359.28l6.82,9.52c-.34-5.26-.91-20.77.67-32,1.77-12.44,7.22-15.68,10.44-24.43l-3.12-16.94c9.24-10.42,24-16.71,34.62-18a52,52,0,0,1,23.72,2.75c-2.11-25.55,7.71-38.95,31.88-41.79a43.89,43.89,0,0,1,14.73.79,46.71,46.71,0,0,1-2.31-9.46c-3-21.92,9.86-41.83,29.3-47-29.84-23-70.12-35-112.46-30" transform="translate(-23.28 -24)"/><path class="cls-2" d="M207.21,213.6a3.47,3.47,0,1,0,4.24,2.45,3.47,3.47,0,0,0-4.24-2.45" transform="translate(-23.28 -24)"/><path class="cls-2" d="M255.25,200.73a3.46,3.46,0,1,0,4.25,2.45,3.47,3.47,0,0,0-4.25-2.45" transform="translate(-23.28 -24)"/><path class="cls-2" d="M234,217.39s7.06,5,10.66-1.07c3.2-5.41-6.58-9.13-11.43-10.6a4.31,4.31,0,0,0-4.4,1.18c-3.46,3.69-10.07,11.81-4.6,14.89,6.18,3.49,9.77-4.4,9.77-4.4" transform="translate(-23.28 -24)"/><path class="cls-3" d="M237.34,210.67a2.72,2.72,0,1,0,3.34,1.92,2.72,2.72,0,0,0-3.34-1.92" transform="translate(-23.28 -24)"/><path class="cls-3" d="M227.68,213.25a2.73,2.73,0,1,0,3.34,1.93,2.73,2.73,0,0,0-3.34-1.93" transform="translate(-23.28 -24)"/><path class="cls-2" d="M212.3,255.37l-2.72,11.35a41,41,0,0,0-.84,5.11,46.16,46.16,0,0,0-.22,5.27,34.84,34.84,0,0,0,.45,5.28,31.22,31.22,0,0,0,1.28,5.19,31.1,31.1,0,0,1-2.11-5,36.55,36.55,0,0,1-1.3-5.32c-.26-1.48-.45-3-.57-4.53l-1.13,2-2.41,4.21a79.36,79.36,0,0,1-1.44-14.11,29.69,29.69,0,0,1,.66-5.07c.23-1.34.53-2.65.81-4,.21-.92.42-1.82.62-2.72a42.55,42.55,0,0,0,1-5.8,17.26,17.26,0,0,0-1.42-8.4.12.12,0,0,1,.06-.16.14.14,0,0,1,.15,0,14.32,14.32,0,0,1,3.63,8.5,29.13,29.13,0,0,1-.1,6.13c-.1,1-.24,2.07-.37,3.08-.19,1.25-.36,2.5-.51,3.72-.23,1.67-.41,3.3-.54,4.94-.06.93-.1,1.87-.1,2.79l1.3-2.28Z" transform="translate(-23.28 -24)"/><path class="cls-2" d="M196.42,211.08a10.1,10.1,0,0,1-5.14-1,14.24,14.24,0,0,1-4-2.81,18.87,18.87,0,0,1-2.89-3.75,33,33,0,0,1-2.22-4.09c-.62-1.41-1.19-2.84-1.7-4.28s-.86-3-1.16-4.46a28,28,0,0,1-.38-9.24c.88,2.79,2,5.48,3.13,8.15q.88,2,1.86,3.93c.64,1.3,1.3,2.59,2,3.85a72.35,72.35,0,0,0,4.72,7.23c.41.59.88,1.13,1.34,1.68s.9,1.12,1.37,1.66,1,1,1.48,1.58,1.07,1,1.59,1.52" transform="translate(-23.28 -24)"/><path class="cls-2" d="M263.34,193.14a10,10,0,0,0,4-3.4,14,14,0,0,0,2.07-4.44,19.25,19.25,0,0,0,.63-4.69,34.31,34.31,0,0,0-.12-4.65c-.18-1.54-.39-3.06-.67-4.56s-.73-3-1.22-4.44a28.08,28.08,0,0,0-4.3-8.19c.64,2.85,1,5.75,1.36,8.62.16,1.45.28,2.89.36,4.34s.17,2.88.18,4.33a70.71,70.71,0,0,1-.47,8.62c-.06.72-.19,1.42-.31,2.13s-.23,1.41-.36,2.12-.36,1.39-.5,2.11-.43,1.38-.61,2.1" transform="translate(-23.28 -24)"/><path class="cls-2" d="M159.5,359.19a3.9,3.9,0,0,1-1.86-7.42c67-31.77,140.22-43.87,212.65-35.28,4.49.54,3.58,8.29-.76,7.78-71-8.46-142.84,3.4-208.55,34.55a3.76,3.76,0,0,1-1.48.37" transform="translate(-23.28 -24)"/><path class="cls-1" d="M340.31,314.3l-2.06-.08v0L334,314l.39-10,14.94-5c-2.44,9.47-7.5,14.11-9.06,15.33" transform="translate(-23.28 -24)"/><path class="cls-1" d="M330.41,313.92l-4.93-.19a15,15,0,0,1-3.64-2.84.15.15,0,0,1-.06-.05c-.24-.23-.46-.5-.7-.76-3.8-4.32-5.42-10.25-5.66-16.29l15.39,9.85Z" transform="translate(-23.28 -24)"/><path class="cls-1" d="M331,299.39l-15.51-10.05a46.84,46.84,0,0,1,1.37-8.55l14.46,10.42Z" transform="translate(-23.28 -24)"/><path class="cls-1" d="M331.47,286.82l-13.53-9.76c.05-.11.11-.25.18-.39a26.34,26.34,0,0,1,2.7-5.55l10.93,8.28Z" transform="translate(-23.28 -24)"/><path class="cls-1" d="M331.93,274.94l-9.06-6.86a33.11,33.11,0,0,1,9.66-8.55Z" transform="translate(-23.28 -24)"/><path class="cls-1" d="M335.57,274.82l.56-14.39a58.68,58.68,0,0,1,7.46,8.59h0Z" transform="translate(-23.28 -24)"/><path class="cls-1" d="M335.05,288.11l.34-8.64,10.21-7.39a35,35,0,0,1,4.87,13.32Z" transform="translate(-23.28 -24)"/><path class="cls-1" d="M334.59,300.06l.32-8.2,15.79-2.77c0,.26,0,.52,0,.76a48.67,48.67,0,0,1-.46,5h0Z" transform="translate(-23.28 -24)"/><path class="cls-1" d="M334.08,384.93l0-11.13,6.28,3.84a51.79,51.79,0,0,1-6.24,7.29" transform="translate(-23.28 -24)"/><path class="cls-1" d="M330.45,384.81a63.37,63.37,0,0,1-5.91-6.72l5.86-4.1Z" transform="translate(-23.28 -24)"/><path class="cls-1" d="M322.39,375.11a58.17,58.17,0,0,1-4.17-7.23l12.11-6.9,0,8.57Z" transform="translate(-23.28 -24)"/><path class="cls-1" d="M342.37,374.58,334,369.47l0-7.92,11,8.34c-.83,1.68-1.68,3.25-2.58,4.69" transform="translate(-23.28 -24)"/><path class="cls-1" d="M346.51,366.46l-12.57-9.54-.05-10.82,15,13.13a53.74,53.74,0,0,1-2.41,7.23" transform="translate(-23.28 -24)"/><path class="cls-1" d="M316.75,364.51c-.11-.21-.38-.93-.43-1.06v0a49.85,49.85,0,0,1-2.53-9.86l16.46-8.5.05,9.49,0,2.23Z" transform="translate(-23.28 -24)"/><path class="cls-1" d="M313.38,349.67a39.89,39.89,0,0,1,.53-9.93l16.3-4.5v1.68l0,8.15,0-4.12Z" transform="translate(-23.28 -24)"/><path class="cls-1" d="M349.81,355.13l-15.95-13.91,0-5.78,16.58,8.63a18.57,18.57,0,0,1,.22,3.39,60.53,60.53,0,0,1-.81,7.67" transform="translate(-23.28 -24)"/><path class="cls-1" d="M349.1,339.25l-15.3-7.95,0-8.08,6,.23c1.6,2,6.73,8.65,9.31,15.8" transform="translate(-23.28 -24)"/><path class="cls-1" d="M315,335.63a25.66,25.66,0,0,1,3.1-6.47v0c.26-.39.52-.73.79-1.07v0c.22-.28.44-.54.68-.8l.24-.29c.22-.24.44-.48.66-.69h0a15.89,15.89,0,0,1,4.7-3.38l5,.2,0,8.33Z" transform="translate(-23.28 -24)"/><path class="cls-1" d="M363.79,364.27A12.64,12.64,0,0,1,353.15,357a61,61,0,0,0,.9-6.19c3.05,2.94,8,5.52,16.13,5.84.34,0,.62,0,.93,0a17.49,17.49,0,0,0,3.05,3.19c-1.77,1.76-5.42,4.62-10.37,4.43" transform="translate(-23.28 -24)"/><path class="cls-1" d="M370.31,353c-7.82-.31-13.39-3-16.1-7.82,0,0,0,0,0,0a26.57,26.57,0,0,0-.44-2.77s0-.09,0-.13a30.17,30.17,0,0,0-1.42-4.76l.18-.67s0-.07,0-.09,0-.08.05-.11,2.64-16.6,14.84-25.2a28.76,28.76,0,0,1,4.38-2.52,25.52,25.52,0,0,0-2.86,10.51,21.8,21.8,0,0,0,1.81,9.6c4,9.34,13.69,15.31,19.3,16.15-2.77,3.19-8.9,8.25-19.71,7.83" transform="translate(-23.28 -24)"/><path class="cls-1" d="M390.73,341.55c-4.05-.52-13.07-5.64-16.71-14-2.78-6.49-1.76-13.37,3-20.44a34.91,34.91,0,0,1,10-.86,30.38,30.38,0,0,0-3.76,5.2,16.84,16.84,0,0,0-2.21,6.71,11,11,0,0,0,2.82,8.29c5.66,6.46,10.7,8.5,13.41,9.14a9.19,9.19,0,0,1-2.51,4.94,5.06,5.06,0,0,1-4.11,1" transform="translate(-23.28 -24)"/><path class="cls-1" d="M382.5,359.43a11,11,0,0,1-6.72-3c12.49-1.6,18-9.93,19.07-11.7a7.78,7.78,0,0,0,2.32-1.39,7.65,7.65,0,0,0,.65-.62c-.35,4-1.45,8.57-4.44,11.82-3.09,3.4-7.06,5.18-10.88,4.91" transform="translate(-23.28 -24)"/><path class="cls-1" d="M401.54,341.8a38.27,38.27,0,0,0-.36-8.1c0-.05,0-.08,0-.13a1.55,1.55,0,0,0,0-.21s-.05-.05-.06-.09,0,0,0,0a1.24,1.24,0,0,0-.17-.32.6.6,0,0,1-.06-.11,30.94,30.94,0,0,1-2.41-3.07c3.95-1.39,6.26-4.17,6.41-7.92a11.6,11.6,0,0,0-4.16-9.7,13,13,0,0,0,2.77-1.3c2,1.7,6.31,6.55,5.95,15.85a19.36,19.36,0,0,1-7.79,15.15" transform="translate(-23.28 -24)"/><path class="cls-1" d="M396.48,326.48a11.76,11.76,0,0,1-1.26-7.15,9.81,9.81,0,0,1,2.48-4.86,8,8,0,0,1,3.44,7.19c-.11,2.85-2.38,4.2-4.66,4.82" transform="translate(-23.28 -24)"/><path class="cls-1" d="M394.57,330.58a28.5,28.5,0,0,1-7.9-6.59,7.33,7.33,0,0,1-1.92-5.56c.36-5.09,5.25-10.1,7-11.71.93.14,1.86.31,2.8.5a4.29,4.29,0,0,1,1.92,1.11,14.16,14.16,0,0,1,1,1.49,14.46,14.46,0,0,0-5.72,8.8,11.77,11.77,0,0,0-.21,1.86,18,18,0,0,0,3.11,10.1" transform="translate(-23.28 -24)"/><path class="cls-1" d="M400.62,308.15a13.89,13.89,0,0,0-1.38-2.15,7.42,7.42,0,0,0-3-2.08,30.78,30.78,0,0,0-6.87-8.57,37.49,37.49,0,0,0-2.37-8.3A20.1,20.1,0,0,1,400.52,292c3.52,3.15,5.17,7.16,4.41,10.74a7.44,7.44,0,0,1-2.54,4.25.13.13,0,0,0-.07.06,8.41,8.41,0,0,1-1.7,1.1" transform="translate(-23.28 -24)"/><path class="cls-1" d="M354,293.9c.15-1.24.26-2.55.32-3.91a31.57,31.57,0,0,0-.92-8.77,23,23,0,0,1,14.77-4.74c6.43.24,11.35,3.59,14.6,10a31.19,31.19,0,0,1,2.21,5.78,26.23,26.23,0,0,0-4.79-2.15c-7.75-2.5-16.56-1.22-26.19,3.79" transform="translate(-23.28 -24)"/><path class="cls-1" d="M349.85,332a70.19,70.19,0,0,0-7.65-11.41,4.5,4.5,0,0,0,.16-3.27c1.76-1.39,8.21-7.06,10.83-18.85,9.72-5.63,18.41-7.29,25.84-4.89a24.6,24.6,0,0,1,12.25,9.31,40.67,40.67,0,0,0-15.54.7,2.45,2.45,0,0,0-.32.09,31.69,31.69,0,0,0-10.12,4.69c-9.72,6.85-13.85,17.76-15.45,23.63" transform="translate(-23.28 -24)"/><path class="cls-2" d="M332.39,390.76a1.79,1.79,0,0,0,.53-.12,1,1,0,0,0,.21-.1.91.91,0,0,0,.22-.11c.66-.48,13.34-9.9,18.65-28.53A15.92,15.92,0,0,0,363.65,368c6.94.27,11.72-4,13.65-6.13a14.2,14.2,0,0,0,4.93,1.28c4.93.36,10-1.87,13.83-6.08A21.55,21.55,0,0,0,401,346.41a.42.42,0,0,0,.13,0A22.78,22.78,0,0,0,413,326.79c.4-10.23-4.19-16-6.82-18.42a11.13,11.13,0,0,0,2.35-4.87c1-4.89-1-10.22-5.57-14.26a23.85,23.85,0,0,0-17.72-5.81c-3.06-5.29-8.23-10.3-16.89-10.64a26.35,26.35,0,0,0-16.05,4.71c-4.75-13.07-16.07-21.94-16.69-22.43a1.35,1.35,0,0,0-.26-.15.27.27,0,0,0-.1-.06,2,2,0,0,0-.61-.14l-.06,0h-.07a2.11,2.11,0,0,0-.61.1h0a28.49,28.49,0,0,0-6.35,3.61c-3.36,2.46-14.43,10.74-15.17,31.42-.64,17.06,5.5,21.39,7,23.63l-.3,9.16c-16,15.36-7.62,39-4.66,45.39,6.87,14.93,16.42,22,16.9,22.38a3,3,0,0,0,.26.15,1.63,1.63,0,0,1,.19.09,2.08,2.08,0,0,0,.54.11h.11s.06,0,.09,0m1.69-5.83,0-11.13,6.28,3.84a51.79,51.79,0,0,1-6.24,7.29m8.29-10.35L334,369.47l0-7.92,11,8.34c-.83,1.68-1.68,3.25-2.58,4.69m4.14-8.12-12.57-9.53-.05-10.83,15,13.13a55.18,55.18,0,0,1-2.42,7.23m2.59-27.21-15.3-7.95,0-8.08,6,.23c1.6,2,6.73,8.65,9.31,15.8m3.45-2.64c0-.17,2.64-16.6,14.84-25.2a28.76,28.76,0,0,1,4.38-2.52,25.52,25.52,0,0,0-2.86,10.51,21.8,21.8,0,0,0,1.81,9.6c4,9.34,13.69,15.31,19.3,16.15-2.77,3.19-8.9,8.25-19.71,7.83-7.82-.31-13.39-3-16.1-7.82,0,0,0,0,0,0-.09-.93-.25-1.84-.43-2.77a.5.5,0,0,1,0-.13,30.17,30.17,0,0,0-1.42-4.76l.18-.68s0-.06,0-.08,0-.08.05-.11m-2.15,7.46a17.72,17.72,0,0,1,.22,3.39,58.75,58.75,0,0,1-.81,7.67l-15.95-13.91,0-5.78Zm13.39,20.2A12.62,12.62,0,0,1,353.16,357c.39-2,.68-4,.89-6.19,3.05,2.94,8,5.52,16.13,5.84.34,0,.62,0,.94,0a17.11,17.11,0,0,0,3,3.19c-1.77,1.76-5.42,4.62-10.37,4.43m29.59-9.75c-3.09,3.4-7.06,5.18-10.87,4.91a11,11,0,0,1-6.73-3c12.49-1.6,18-9.92,19.07-11.7a7.78,7.78,0,0,0,2.32-1.39,7.65,7.65,0,0,0,.65-.62c-.35,4-1.45,8.57-4.44,11.82m-2.65-13c-4.05-.52-13.07-5.64-16.71-14-2.78-6.49-1.76-13.37,3-20.44a34.91,34.91,0,0,1,10-.86,30.38,30.38,0,0,0-3.76,5.2,16.84,16.84,0,0,0-2.21,6.71,11,11,0,0,0,2.82,8.29c5.66,6.46,10.7,8.5,13.41,9.14a9.19,9.19,0,0,1-2.51,4.94,5.06,5.06,0,0,1-4.11,1m18.6-14.9a19.33,19.33,0,0,1-7.79,15.15,37.51,37.51,0,0,0-.36-8.1c0-.05,0-.08,0-.13a1.55,1.55,0,0,0,0-.21s-.05-.05-.06-.09,0,0,0,0a1.24,1.24,0,0,0-.17-.32.6.6,0,0,1-.06-.11,29.37,29.37,0,0,1-2.4-3.07c3.94-1.39,6.25-4.17,6.4-7.92a11.6,11.6,0,0,0-4.16-9.7,13,13,0,0,0,2.77-1.3c2,1.7,6.31,6.55,5.95,15.85m-12.85-.17a11.68,11.68,0,0,1-1.25-7.15,9.72,9.72,0,0,1,2.47-4.86,8,8,0,0,1,3.44,7.19c-.11,2.85-2.38,4.2-4.66,4.82m-.05-18.15a14.16,14.16,0,0,1,1,1.49,14.46,14.46,0,0,0-5.72,8.8,11.78,11.78,0,0,0-.21,1.85,18,18,0,0,0,3.11,10.11,28.5,28.5,0,0,1-7.9-6.59,7.33,7.33,0,0,1-1.92-5.56c.36-5.09,5.25-10.1,7-11.71.93.14,1.86.31,2.8.5a4.29,4.29,0,0,1,1.92,1.11M400.52,292c3.52,3.15,5.17,7.16,4.41,10.74a7.5,7.5,0,0,1-2.54,4.26s0,0-.07.05a8.41,8.41,0,0,1-1.7,1.1,13.89,13.89,0,0,0-1.38-2.15,7.42,7.42,0,0,0-3-2.08,30.78,30.78,0,0,0-6.87-8.57,37.49,37.49,0,0,0-2.37-8.3A20.1,20.1,0,0,1,400.52,292m-32.36-15.52c6.43.25,11.35,3.6,14.6,10a31.19,31.19,0,0,1,2.21,5.78,25.55,25.55,0,0,0-4.79-2.14c-7.75-2.51-16.56-1.23-26.19,3.78.15-1.24.26-2.55.32-3.91a31.57,31.57,0,0,0-.92-8.77,23,23,0,0,1,14.77-4.74m-33.57,23.58.32-8.2,15.79-2.77c0,.26,0,.52,0,.76a48.67,48.67,0,0,1-.46,5h0Zm15.88-14.66-15.42,2.71.34-8.64,10.21-7.38a34.74,34.74,0,0,1,4.87,13.31M343.6,269h0l-8,5.8.56-14.39A59.26,59.26,0,0,1,343.6,269m-11.07-9.49-.6,15.41-9.06-6.86a33.24,33.24,0,0,1,9.66-8.55m-14.41,17.14a26.84,26.84,0,0,1,2.7-5.55l10.94,8.28-.29,7.42-13.53-9.76c.05-.11.11-.25.18-.39m-2.65,12.67a46.84,46.84,0,0,1,1.37-8.55l14.46,10.42-.32,8.18Zm10,24.39a15,15,0,0,1-3.64-2.84.15.15,0,0,1-.06-.05c-.24-.23-.46-.49-.7-.76-3.8-4.32-5.42-10.25-5.66-16.3l15.39,9.85-.4,10.29Zm12.77.49v0l-4.2-.16.38-10,14.94-5c-2.44,9.47-7.5,14.11-9.06,15.33Zm3.95,6.41a4.5,4.5,0,0,0,.16-3.27c1.76-1.39,8.21-7.06,10.83-18.85,9.72-5.63,18.41-7.29,25.84-4.89a24.6,24.6,0,0,1,12.25,9.31,40.68,40.68,0,0,0-15.54.7,2.45,2.45,0,0,0-.32.09,31.69,31.69,0,0,0-10.12,4.69c-9.72,6.85-13.85,17.76-15.45,23.63a70.19,70.19,0,0,0-7.65-11.41m-24.14,8.53v0c.26-.39.52-.73.79-1.07v0c.22-.28.44-.54.68-.8l.24-.29c.22-.24.44-.48.66-.69h0a15.89,15.89,0,0,1,4.7-3.38l5,.2,0,8.33L315,335.63a25.66,25.66,0,0,1,3.1-6.47m-1.74,34.29v0a50.55,50.55,0,0,1-2.53-9.86l16.46-8.5,0-4.12-16.85,8.72a39.86,39.86,0,0,1,.53-9.93l16.31-4.5v1.67l0,8.16.05,9.49,0,2.22-13.57,7.73c-.11-.21-.38-.93-.43-1.06m1.9,4.43,12.11-6.9.05,8.57-8,5.56a58.17,58.17,0,0,1-4.17-7.23m6.32,10.21,5.86-4.1.05,10.82a63.37,63.37,0,0,1-5.91-6.72" transform="translate(-23.28 -24)"/><path class="cls-2" d="M203.38,253.06a60.59,60.59,0,0,1-15.61-4.25,91.31,91.31,0,0,1-18.68-10.66,111.18,111.18,0,0,1-16.4-14.7,86,86,0,0,1-13-18.18l-.37-.73-.64.24h0a80.2,80.2,0,0,0-22.09,11.08,125.57,125.57,0,0,0-18.79,16.32,214.49,214.49,0,0,0-16.17,19.15C76.53,258,71.87,265,67.24,272c5.08-6.67,10.19-13.31,15.71-19.53a207.62,207.62,0,0,1,17.22-17.72,120.42,120.42,0,0,1,19.24-14.42c1.71-1,3.4-2,5.16-2.82,1.45-.78,3-1.44,4.44-2.09h0c-.62,1.23-1.2,2.49-1.79,3.74-1.29,2.72-2.5,5.48-3.66,8.27-.6,1.38-1.13,2.8-1.69,4.2s-1,2.88-1.49,4.31c-.94,2.88-1.82,5.79-2.61,8.73-.44,1.45-.74,2.95-1.08,4.43s-.64,3-.93,4.48a116.45,116.45,0,0,0-2,18.16,142.53,142.53,0,0,1,4.08-17.47c.42-1.43.84-2.86,1.32-4.26s.91-2.83,1.47-4.2c1.06-2.77,2.19-5.49,3.39-8.19A169.12,169.12,0,0,1,132,222c1.42-2.55,3.07-4.94,4.41-7.54.13-.25.25-.51.37-.77a27.12,27.12,0,0,0,.25,3.93c.13,1.32.27,2.63.5,3.93a113.61,113.61,0,0,0,3.57,15.38c1.44,5.05,3,10.05,4.55,15s3.36,9.9,5.27,14.76c-1.21-5.06-2.38-10.12-3.46-15.2s-2.08-10.18-2.89-15.29-1.45-10.26-2.2-15.34h0c1.84,2.42,3.78,4.73,5.79,6.95a117.77,117.77,0,0,0,17.34,15.69,96.4,96.4,0,0,0,20,11.53A66.38,66.38,0,0,0,202,259.73q1.91.28,3.84.42c.15-1.22.32-2.47.51-3.72.13-1,.27-2,.37-3.08-1.1-.07-2.2-.16-3.29-.29" transform="translate(-23.28 -24)"/><path class="cls-2" d="M271.73,239.44l8,8.47a42.63,42.63,0,0,1,3.29,4,48.49,48.49,0,0,1,2.82,4.45,35.61,35.61,0,0,1,2.25,4.8,31.92,31.92,0,0,1,1.49,5.14,31.92,31.92,0,0,0-.68-5.39,38,38,0,0,0-1.53-5.26c-.52-1.41-1.12-2.83-1.77-4.21l2,1.15,4.18,2.45a79,79,0,0,0-5.8-12.94,30.1,30.1,0,0,0-3.11-4.06c-.87-1-1.78-2-2.67-3-.64-.69-1.28-1.36-1.9-2.05a41.59,41.59,0,0,1-3.74-4.53,17.37,17.37,0,0,1-3-8c0-.06-.07-.11-.14-.11s-.09.05-.11.1a14.34,14.34,0,0,0,1.1,9.17,29.9,29.9,0,0,0,3.15,5.26c.62.85,1.25,1.67,1.86,2.48.79,1,1.57,2,2.31,3,1,1.33,2,2.65,2.93,4,.52.78,1,1.56,1.48,2.36l-2.26-1.32Z" transform="translate(-23.28 -24)"/><path class="cls-2" d="M382.85,170.62a211.63,211.63,0,0,0-23.57-8.49,124.87,124.87,0,0,0-24.43-4.75,80.36,80.36,0,0,0-24.67,1.46h0l-.67.11,0,.82A85.33,85.33,0,0,1,307.39,182a111.07,111.07,0,0,1-6.85,20.94,91.07,91.07,0,0,1-10.85,18.57A60.44,60.44,0,0,1,278.3,233c-.88.67-1.78,1.29-2.71,1.9.62.85,1.25,1.67,1.86,2.48.79,1,1.57,2,2.31,3,1.07-.73,2.1-1.49,3.11-2.28a66.61,66.61,0,0,0,11.94-12.31,96.92,96.92,0,0,0,11.54-20,117.81,117.81,0,0,0,7.17-22.26c.63-2.93,1.15-5.9,1.54-8.92h0c1.89,4.78,3.9,9.55,5.77,14.38s3.57,9.74,5.14,14.69,3.12,9.91,4.6,14.9c-.77-5.17-1.69-10.32-2.82-15.42s-2.29-10.2-3.57-15.3a114.65,114.65,0,0,0-4.59-15.1c-.46-1.24-1-2.44-1.54-3.65a28.18,28.18,0,0,0-1.74-3.53l.7.49c2.46,1.57,5.08,2.82,7.59,4.32a168.48,168.48,0,0,1,14.75,9.54c2.38,1.74,4.73,3.53,7,5.4,1.17.9,2.25,1.92,3.37,2.9s2.2,2,3.28,3a144.85,144.85,0,0,1,12.26,13.09,114.73,114.73,0,0,0-10.86-14.7c-1-1.15-2-2.31-3-3.41s-2.05-2.27-3.15-3.31c-2.15-2.14-4.37-4.22-6.63-6.25-1.15-1-2.25-2-3.44-3s-2.35-1.9-3.56-2.8q-3.6-2.74-7.3-5.33c-1.14-.79-2.27-1.59-3.43-2.35h0c1.62-.18,3.24-.36,4.89-.41,1.94-.16,3.91-.13,5.88-.13a120,120,0,0,1,23.87,2.86,207.76,207.76,0,0,1,23.78,6.74c7.89,2.62,15.63,5.82,23.36,9-7.52-3.76-15.06-7.5-22.82-10.7" transform="translate(-23.28 -24)"/><path class="cls-2" d="M250.83,329.45a28.35,28.35,0,0,1-2.25-3.41,39.33,39.33,0,0,1-1.91-3.78,29.92,29.92,0,0,1-1.44-4,14.52,14.52,0,0,1-.59-4.26h0c-.9,4.75,1.94,12.85,4.11,16.65a10.27,10.27,0,0,1-5.15-2.45,35.41,35.41,0,0,1-3.06-3.23,14.11,14.11,0,0,0,.17,3.25,31.06,31.06,0,0,0,2.31,6.38,11.32,11.32,0,0,1-6.29-2.42,32.58,32.58,0,0,1-3.55-4.49,14,14,0,0,0,.81,4.83,15.92,15.92,0,0,0,1.45,3.08,11.37,11.37,0,0,1-7.36-5,30.29,30.29,0,0,1-3.63-9.13,79.76,79.76,0,0,1-1.2-14.1h-.05a16.66,16.66,0,0,0-1.35,4.23,28.33,28.33,0,0,0-.54,4.27,31.36,31.36,0,0,0,0,4.33l.13,1.13.2,1.16c.13.73.29,1.47.48,2.2a29.73,29.73,0,0,0,1.52,4.3,19.79,19.79,0,0,0,1,2.05c.19.34.38.67.58,1s.49.77.76,1.12a13.49,13.49,0,0,0,4,3.35,11.66,11.66,0,0,0,5,1.46h0l5,.39L238.5,336l.7.26a19.51,19.51,0,0,0,3.49.74l4.43.64-2-4.06c-.3-.63-.59-1.29-.86-2A10.37,10.37,0,0,0,248.5,333h0l5.65.68Z" transform="translate(-23.28 -24)"/><path class="cls-3" d="M228.08,330.6a11.37,11.37,0,0,0,7.36,5,15.92,15.92,0,0,1-1.45-3.08,14,14,0,0,1-.81-4.83,32.58,32.58,0,0,0,3.55,4.49,11.32,11.32,0,0,0,6.29,2.42,31.06,31.06,0,0,1-2.31-6.38,13.49,13.49,0,0,1-.17-3.25,35.41,35.41,0,0,0,3.06,3.23,10.27,10.27,0,0,0,5.15,2.45c-2.17-3.8-5-11.9-4.11-16.65h0l-21.38-6.62a79.76,79.76,0,0,0,1.2,14.1,30.29,30.29,0,0,0,3.63,9.13" transform="translate(-23.28 -24)"/><path class="cls-2" d="M297.17,302.26l-.41-1.1-.45-1.05a32.16,32.16,0,0,0-2.13-3.77,27.6,27.6,0,0,0-2.61-3.42,16.5,16.5,0,0,0-3.28-3l0,0a79.93,79.93,0,0,1,6,12.81,30.35,30.35,0,0,1,1.41,9.72,11.34,11.34,0,0,1-3.86,8,16.89,16.89,0,0,0-.3-3.4,13.89,13.89,0,0,0-1.71-4.58,32.73,32.73,0,0,1-.83,5.66,11.34,11.34,0,0,1-4.23,5.24,31.2,31.2,0,0,0-1.2-6.68,14.07,14.07,0,0,0-1.47-2.9,34,34,0,0,1-1,4.33,10.29,10.29,0,0,1-3.23,4.7c0-4.38-1.61-12.81-4.77-16.48h0a14.44,14.44,0,0,1,1.62,4,30.08,30.08,0,0,1,.76,4.2c.15,1.41.23,2.83.24,4.23a29.66,29.66,0,0,1-.25,4.07l-.78,5.36,4.56-3.41,0,0a10.25,10.25,0,0,0,2.91-3.34c.1.72.19,1.43.24,2.13l.34,4.49,3.52-2.77a19.72,19.72,0,0,0,2.65-2.39c.16-.18.32-.38.48-.58l-.11,2.83,4.11-2.82h0a11.38,11.38,0,0,0,3.57-3.74,13.33,13.33,0,0,0,1.78-4.9c.06-.44.09-1,.1-1.35s0-.76,0-1.15c0-.77,0-1.54-.12-2.3a30.51,30.51,0,0,0-.84-4.48c-.2-.73-.43-1.45-.68-2.15" transform="translate(-23.28 -24)"/><path class="cls-3" d="M277.8,322.86a10.29,10.29,0,0,0,3.23-4.7,34.35,34.35,0,0,0,1-4.33,13.77,13.77,0,0,1,1.47,2.9,31.2,31.2,0,0,1,1.2,6.68,11.34,11.34,0,0,0,4.23-5.24,32.73,32.73,0,0,0,.83-5.66,13.89,13.89,0,0,1,1.71,4.58,16.89,16.89,0,0,1,.3,3.4,11.34,11.34,0,0,0,3.86-8,30.35,30.35,0,0,0-1.41-9.72,79.93,79.93,0,0,0-6-12.81L273,306.38h0c3.16,3.67,4.75,12.1,4.77,16.48" transform="translate(-23.28 -24)"/></svg>